<?xml version="1.0" standalone="no"?>
   <!DOCTYPE svg PUBLIC "-//W3C//DTD SVG 1.1//EN" 
   "http://www.w3.org/Graphics/SVG/1.1/DTD/svg11.dtd"><svg id="svg" version="1.1" width="2169" height="1974" xmlns="http://www.w3.org/2000/svg"><path d="M977.020 163.980 C 975.909 165.091,975.000 167.031,975.000 168.291 C 975.000 170.697,1063.169 240.000,1066.230 240.000 C 1078.261 240.000,1038.711 204.113,984.378 165.730 C 981.442 163.656,978.132 162.868,977.020 163.980 M1090.717 164.649 C 1089.709 166.280,1089.791 184.576,1090.899 205.307 C 1092.451 234.335,1093.864 243.000,1097.044 243.000 C 1100.384 243.000,1101.014 235.442,1100.337 203.496 C 1099.773 176.888,1098.365 163.615,1096.025 162.837 C 1094.114 162.203,1091.725 163.018,1090.717 164.649 M765.963 179.089 C 749.906 182.214,674.079 295.317,626.286 387.431 C 526.419 579.910,487.811 755.584,518.776 876.616 C 521.855 888.652,533.929 918.075,545.607 942.000 C 570.022 992.020,578.947 1023.844,578.979 1060.993 C 578.997 1081.849,577.414 1089.644,568.320 1113.493 C 558.894 1138.209,539.404 1188.107,437.269 1449.000 C 398.347 1548.424,395.513 1554.662,383.209 1568.011 C 351.178 1602.761,289.542 1625.772,223.500 1627.638 L 190.500 1628.570 184.853 1637.991 C 180.071 1645.971,179.785 1648.493,182.985 1654.471 C 194.532 1676.048,287.542 1722.300,382.500 1753.687 C 471.363 1783.058,538.093 1796.931,550.943 1788.704 C 552.836 1787.492,554.861 1782.569,555.443 1777.765 C 556.358 1770.201,554.491 1767.620,541.500 1758.497 C 500.180 1729.481,470.294 1690.808,454.238 1645.579 C 447.358 1626.201,446.431 1619.609,447.584 1598.281 C 448.980 1572.478,454.782 1556.584,525.074 1386.000 C 532.893 1367.025,552.451 1319.100,568.536 1279.500 C 584.620 1239.900,601.432 1198.725,605.894 1188.000 C 610.357 1177.275,617.849 1159.050,622.544 1147.500 C 629.634 1130.060,635.440 1122.162,656.791 1100.914 C 686.180 1071.666,720.955 1047.306,746.164 1038.307 C 768.911 1030.187,801.610 1012.801,821.222 998.398 C 886.226 950.661,959.441 834.777,1009.858 699.827 C 1052.783 584.929,1088.322 440.526,1096.813 346.500 C 1099.555 316.141,1102.055 323.649,1106.800 376.500 C 1114.239 459.353,1135.957 564.165,1165.853 661.500 C 1194.593 755.069,1224.963 825.268,1265.925 892.809 C 1316.655 976.458,1365.380 1019.023,1437.078 1042.321 C 1467.149 1052.092,1488.625 1065.777,1509.179 1088.267 C 1529.788 1110.816,1541.632 1128.682,1548.115 1146.996 C 1551.133 1155.523,1567.295 1199.625,1584.030 1245.000 C 1600.765 1290.375,1619.844 1342.350,1626.429 1360.500 C 1647.728 1419.210,1677.041 1498.164,1688.245 1527.000 C 1708.096 1578.089,1713.000 1595.927,1713.000 1617.051 C 1713.000 1642.042,1703.862 1670.937,1687.120 1698.884 C 1672.845 1722.712,1632.501 1762.847,1610.250 1775.355 C 1591.925 1785.656,1588.639 1792.889,1597.056 1804.399 C 1600.658 1809.326,1604.094 1809.749,1627.806 1808.186 C 1724.212 1801.829,1930.537 1733.095,1977.954 1691.538 L 1989.408 1681.500 1985.448 1669.500 L 1981.488 1657.500 1948.494 1655.308 C 1876.556 1650.527,1807.758 1622.622,1777.812 1586.076 C 1766.801 1572.639,1755.166 1543.299,1722.267 1446.000 C 1719.198 1436.925,1709.687 1409.925,1701.131 1386.000 C 1692.575 1362.075,1683.527 1336.425,1681.025 1329.000 C 1678.522 1321.575,1667.948 1291.875,1657.525 1263.000 C 1628.259 1181.917,1602.921 1109.779,1598.897 1096.083 C 1590.849 1068.687,1606.349 999.541,1629.217 960.817 C 1667.975 895.189,1679.998 850.867,1680.239 772.727 C 1680.633 644.956,1633.914 490.752,1546.789 332.252 C 1509.968 265.266,1456.237 183.354,1446.566 179.461 C 1443.780 178.339,1432.409 177.327,1421.298 177.211 C 1354.211 176.511,1166.000 241.683,1114.893 283.310 L 1099.137 296.143 1085.138 284.911 C 1070.025 272.786,1030.328 251.450,999.000 238.615 C 988.275 234.221,975.450 228.833,970.500 226.642 C 936.015 211.380,852.087 187.676,810.148 181.354 C 781.150 176.983,777.697 176.806,765.963 179.089 M1141.995 219.750 C 1116.077 247.042,1102.431 263.550,1104.254 265.405 C 1107.453 268.658,1191.000 187.164,1191.000 180.790 C 1191.000 171.093,1179.575 180.175,1141.995 219.750 M1444.336 188.734 C 1447.264 193.473,1420.892 213.954,1393.175 228.466 C 1307.870 273.130,1141.965 320.752,1111.924 309.199 C 1104.525 306.353,1103.891 305.247,1107.303 301.135 C 1114.807 292.093,1146.962 272.141,1175.689 258.701 C 1235.369 230.779,1298.970 208.939,1365.000 193.692 C 1396.737 186.364,1441.155 183.588,1444.336 188.734 M864.096 201.897 C 921.694 216.928,975.461 236.949,1027.500 262.746 C 1074.027 285.810,1093.160 299.486,1091.345 308.382 C 1088.009 324.725,972.421 299.473,879.979 262.206 C 819.903 237.986,762.000 204.026,762.000 193.010 C 762.000 184.605,815.762 189.285,864.096 201.897 M805.110 238.130 C 876.758 276.899,1001.841 317.344,1066.863 322.766 L 1090.950 324.775 1086.888 355.138 C 1049.167 637.073,928.218 915.225,808.500 995.361 C 791.370 1006.827,778.210 1013.479,741.083 1029.442 C 704.824 1045.031,649.129 1087.703,629.370 1115.034 C 623.617 1122.990,609.051 1153.800,597.000 1183.500 C 584.949 1213.200,563.002 1267.200,548.229 1303.500 C 533.456 1339.800,512.902 1390.425,502.554 1416.000 C 486.332 1456.089,465.904 1506.285,443.523 1561.046 C 434.221 1583.807,434.715 1621.541,444.680 1649.418 C 459.199 1690.031,485.602 1727.607,517.386 1752.888 L 532.500 1764.909 515.152 1762.917 C 494.588 1760.555,481.479 1757.496,433.500 1743.861 C 344.591 1718.594,251.300 1679.212,210.756 1649.833 L 196.500 1639.503 231.000 1637.554 C 273.225 1635.169,304.855 1627.102,340.500 1609.627 C 371.198 1594.577,386.254 1583.026,398.642 1565.020 C 405.868 1554.517,426.549 1504.492,463.349 1408.500 C 467.145 1398.600,480.359 1364.850,492.715 1333.500 C 544.635 1201.765,579.001 1113.118,579.018 1110.886 C 579.029 1109.574,581.149 1104.450,583.731 1099.500 C 589.423 1088.589,590.095 1046.371,584.986 1020.758 C 581.233 1001.946,567.831 960.308,563.981 955.500 C 556.257 945.855,533.405 894.621,527.779 874.337 C 522.393 854.919,520.930 840.211,519.884 795.000 C 518.746 745.785,519.448 734.574,526.084 696.000 C 548.436 566.066,608.294 422.676,699.313 281.030 C 713.969 258.221,732.299 230.996,740.045 220.530 L 754.129 201.501 769.315 214.240 C 777.667 221.246,793.774 231.996,805.110 238.130 M1474.858 231.750 C 1552.125 349.242,1611.144 473.677,1642.403 585.000 C 1663.442 659.923,1672.500 726.219,1670.107 787.764 C 1667.480 855.365,1657.960 890.730,1629.398 939.000 C 1603.866 982.147,1590.732 1022.185,1587.988 1065.232 C 1586.011 1096.245,1584.566 1090.180,1611.160 1162.500 C 1614.194 1170.750,1624.727 1200.450,1634.567 1228.500 C 1644.407 1256.550,1662.818 1308.525,1675.479 1344.000 C 1699.614 1411.623,1736.201 1515.862,1746.547 1546.480 C 1755.166 1571.987,1761.780 1583.922,1774.970 1597.768 C 1812.257 1636.911,1884.575 1664.772,1949.801 1665.122 L 1972.500 1665.244 1962.435 1673.854 C 1930.237 1701.396,1788.423 1753.189,1691.583 1772.775 C 1656.065 1779.959,1619.900 1784.741,1620.210 1782.214 C 1620.325 1781.271,1628.762 1774.323,1638.960 1766.774 C 1664.729 1747.697,1689.313 1717.328,1705.198 1684.949 C 1730.214 1633.957,1730.087 1609.527,1704.451 1541.327 C 1696.217 1519.422,1682.541 1482.600,1674.059 1459.500 C 1660.322 1422.085,1616.832 1304.284,1602.070 1264.500 C 1599.008 1256.250,1590.436 1233.300,1583.021 1213.500 C 1575.605 1193.700,1567.256 1170.075,1564.467 1161.000 C 1554.031 1127.044,1541.534 1106.527,1514.944 1079.693 C 1488.431 1052.936,1462.438 1037.207,1431.076 1028.943 C 1404.721 1021.998,1372.159 1002.214,1342.143 974.909 C 1247.724 889.019,1160.567 673.960,1123.333 435.000 C 1116.959 394.095,1109.418 323.582,1111.223 321.777 C 1112.068 320.932,1122.447 319.788,1134.288 319.234 C 1210.273 315.681,1381.566 255.391,1435.500 213.215 C 1443.750 206.764,1451.430 201.376,1452.568 201.243 C 1453.705 201.109,1463.736 214.838,1474.858 231.750 M657.759 462.308 C 632.757 465.216,618.000 471.673,618.000 479.703 C 618.000 482.754,613.149 495.882,607.221 508.875 C 582.470 563.120,556.930 650.310,547.538 712.625 C 541.565 752.252,541.655 823.184,547.718 855.419 C 555.322 895.850,567.709 928.705,582.621 948.000 C 606.319 978.663,628.590 994.617,662.179 1004.991 C 686.725 1012.573,703.891 1012.573,733.539 1004.990 C 810.612 985.278,891.075 904.568,955.136 782.715 C 984.262 727.311,1007.303 667.121,1024.858 600.576 C 1028.909 585.219,1034.850 565.992,1038.059 557.851 C 1046.005 537.691,1042.611 531.152,1017.339 517.937 C 969.625 492.987,858.753 469.577,753.000 462.125 C 703.922 458.666,688.810 458.695,657.759 462.308 M1415.657 462.228 C 1399.794 463.541,1365.478 468.107,1339.399 472.375 C 1236.667 489.186,1174.814 508.221,1155.433 528.989 L 1148.365 536.562 1154.447 555.531 C 1157.792 565.964,1165.436 594.507,1171.433 618.959 C 1185.579 676.632,1196.507 708.873,1219.598 761.063 C 1276.458 889.576,1360.491 983.511,1439.104 1006.435 C 1478.822 1018.016,1511.872 1014.661,1548.617 995.317 C 1622.943 956.189,1659.829 843.629,1642.322 709.375 C 1633.765 643.761,1618.639 583.662,1594.028 517.500 C 1577.483 473.020,1577.651 473.337,1568.204 468.697 C 1550.088 459.798,1480.594 456.851,1415.657 462.228 M788.660 474.186 C 907.661 487.063,1032.000 521.413,1032.000 541.411 C 1032.000 558.331,916.151 559.035,814.500 542.731 C 714.247 526.652,627.000 498.607,627.000 482.461 C 627.000 469.646,708.264 465.486,788.660 474.186 M1558.331 474.751 C 1564.838 477.081,1570.664 480.492,1571.277 482.332 C 1574.125 490.876,1530.997 509.065,1474.341 523.214 C 1442.682 531.121,1370.239 543.455,1323.141 548.958 C 1292.678 552.517,1202.928 553.445,1188.978 550.345 C 1149.636 541.603,1151.482 533.747,1197.000 516.192 C 1253.039 494.579,1336.030 479.112,1446.000 469.785 C 1474.607 467.358,1546.569 470.540,1558.331 474.751 M1583.570 519.403 C 1633.372 644.858,1648.938 780.186,1624.414 874.500 C 1610.851 926.656,1576.695 972.093,1537.121 990.624 C 1510.985 1002.861,1472.586 1005.749,1444.183 997.612 C 1338.724 967.401,1235.527 821.354,1182.309 627.000 C 1177.678 610.088,1167.005 560.559,1167.001 555.959 C 1167.000 555.662,1171.388 556.734,1176.750 558.343 C 1189.696 562.225,1284.097 562.065,1320.000 558.100 C 1430.119 545.940,1538.547 520.943,1565.112 501.591 C 1569.719 498.235,1573.712 495.716,1573.984 495.995 C 1574.256 496.273,1578.570 506.806,1583.570 519.403 M642.352 506.892 C 673.636 523.836,761.762 545.669,843.000 556.602 C 889.083 562.803,992.216 565.779,1010.919 561.446 C 1018.299 559.736,1024.636 558.636,1025.001 559.001 C 1026.757 560.757,1009.393 623.851,997.484 658.991 C 981.945 704.841,968.643 736.048,945.905 780.000 C 927.934 814.736,886.360 879.000,881.858 879.000 C 880.286 879.000,879.000 880.916,879.000 883.258 C 879.000 889.781,820.088 948.117,797.155 964.303 C 785.965 972.201,767.065 982.858,755.155 987.986 C 735.168 996.591,730.843 997.317,699.000 997.405 C 666.264 997.495,663.457 997.006,644.092 987.834 C 607.437 970.472,579.055 933.624,564.020 883.876 C 543.322 815.390,549.616 712.285,580.800 609.000 C 594.712 562.923,619.996 498.000,624.029 498.000 C 625.077 498.000,633.322 502.001,642.352 506.892 M652.765 557.571 C 650.043 561.975,654.088 570.000,659.030 570.000 C 661.827 570.000,663.070 567.639,662.459 563.485 C 661.420 556.429,655.648 552.907,652.765 557.571 M811.338 603.261 C 808.503 607.849,814.656 613.158,820.298 610.993 C 822.884 610.000,825.000 607.121,825.000 604.594 C 825.000 599.351,814.395 598.316,811.338 603.261 M1518.750 614.155 C 1512.428 616.423,1514.280 627.000,1521.000 627.000 C 1524.939 627.000,1527.000 625.000,1527.000 621.177 C 1527.000 614.563,1524.217 612.194,1518.750 614.155 M1396.338 627.261 C 1393.720 631.497,1399.503 637.280,1403.739 634.662 C 1408.497 631.721,1407.728 624.000,1402.677 624.000 C 1400.299 624.000,1397.447 625.468,1396.338 627.261 M924.000 637.750 C 924.000 647.148,931.045 646.120,932.459 636.515 C 933.095 632.188,931.836 630.000,928.709 630.000 C 925.646 630.000,924.000 632.708,924.000 637.750 M700.603 635.834 C 697.707 640.519,701.517 645.000,708.397 645.000 C 712.522 645.000,714.121 643.345,713.436 639.784 C 712.284 633.807,703.522 631.110,700.603 635.834 M613.007 643.702 C 610.842 649.344,616.151 655.497,620.739 652.662 C 625.684 649.605,624.649 639.000,619.406 639.000 C 616.879 639.000,614.000 641.116,613.007 643.702 M1262.104 661.896 C 1260.947 663.053,1260.000 666.569,1260.000 669.709 C 1260.000 673.913,1261.779 675.165,1266.750 674.459 C 1271.163 673.832,1273.500 671.437,1273.500 667.541 C 1273.500 661.590,1266.083 657.917,1262.104 661.896 M1570.322 705.288 C 1569.204 707.096,1570.253 710.539,1572.653 712.938 C 1576.470 716.755,1577.485 716.736,1580.766 712.782 C 1582.829 710.296,1583.646 706.854,1582.581 705.131 C 1580.046 701.029,1572.898 701.120,1570.322 705.288 M775.441 708.095 C 774.276 709.980,774.734 712.934,776.460 714.660 C 780.491 718.691,789.891 715.175,788.251 710.248 C 786.581 705.233,778.092 703.806,775.441 708.095 M889.338 738.261 C 886.247 743.264,893.200 749.000,897.339 744.861 C 900.800 741.400,898.634 735.000,894.000 735.000 C 892.545 735.000,890.447 736.468,889.338 738.261 M1411.081 745.511 C 1409.992 748.347,1411.326 752.611,1414.198 755.483 C 1418.609 759.892,1419.567 759.955,1422.105 756.000 C 1423.693 753.525,1424.641 749.491,1424.212 747.034 C 1423.106 740.709,1413.357 739.578,1411.081 745.511 M616.236 793.107 C 613.984 798.975,617.052 804.000,622.886 804.000 C 625.831 804.000,627.082 801.719,626.459 797.485 C 625.295 789.574,618.679 786.741,616.236 793.107 M1307.000 791.000 C 1303.197 794.803,1305.023 798.000,1311.000 798.000 C 1314.333 798.000,1317.000 796.000,1317.000 793.500 C 1317.000 788.933,1310.654 787.346,1307.000 791.000 M1526.250 794.248 C 1520.711 795.505,1518.824 808.301,1523.729 811.333 C 1528.904 814.531,1536.000 809.340,1536.000 802.356 C 1536.000 794.398,1533.766 792.541,1526.250 794.248 M817.140 808.356 C 815.055 813.791,818.082 819.000,823.327 819.000 C 827.449 819.000,831.615 808.615,828.674 805.674 C 825.474 802.474,818.802 804.026,817.140 808.356 M1389.000 889.323 C 1389.000 898.586,1394.278 902.007,1399.898 896.388 C 1405.381 890.905,1402.150 882.000,1394.679 882.000 C 1390.658 882.000,1389.000 884.138,1389.000 889.323 M764.104 886.896 C 759.380 891.620,762.184 897.391,768.750 896.459 C 772.463 895.931,775.500 893.493,775.500 891.041 C 775.500 886.275,767.599 883.401,764.104 886.896 M662.000 908.000 C 657.870 912.130,660.218 918.000,666.000 918.000 C 670.000 918.000,672.000 916.000,672.000 912.000 C 672.000 906.218,666.130 903.870,662.000 908.000 M1489.322 924.288 C 1486.152 929.418,1496.155 938.045,1500.377 933.823 C 1502.258 931.942,1502.985 928.288,1501.993 925.702 C 1499.916 920.291,1492.316 919.443,1489.322 924.288 M265.661 1692.305 C 346.336 1730.485,452.656 1764.762,517.335 1773.442 C 533.101 1775.558,546.000 1778.161,546.000 1779.227 C 546.000 1782.878,508.441 1778.367,477.000 1770.939 C 390.211 1750.437,244.532 1693.121,210.048 1665.911 C 192.607 1652.149,193.428 1651.586,213.000 1663.888 C 225.375 1671.667,249.072 1684.454,265.661 1692.305 M1972.416 1683.093 C 1952.803 1704.765,1834.157 1752.198,1737.000 1777.209 C 1673.620 1793.524,1613.521 1802.819,1605.570 1797.535 C 1603.107 1795.899,1611.505 1794.224,1628.070 1793.048 C 1714.774 1786.892,1883.935 1734.200,1952.090 1692.118 C 1979.470 1675.213,1979.599 1675.155,1972.416 1683.093 " stroke="none" fill="black" fill-rule="evenodd"/></svg>